<svg width="122" height="18" viewBox="0 0 122 18" fill="none" xmlns="http://www.w3.org/2000/svg">
<path d="M1 7V15H3V7H1Z" fill="white"/>
<path d="M5 5V15H7V5H5Z" fill="white"/>
<path d="M11 3H9V9V15H11V3Z" fill="white"/>
<path d="M1 7V15H3V7H1Z" stroke="white"/>
<path d="M5 5V15H7V5H5Z" stroke="white"/>
<path d="M11 3H9V9V15H11V3Z" stroke="white"/>
<path d="M15.3047 5.75781C15.888 5.77865 16.3542 5.78906 16.7031 5.78906C17.3542 5.76823 17.7539 5.75781 17.9023 5.75781C18.1445 5.75781 18.3724 5.76823 18.5859 5.78906C18.7995 5.8099 19.0195 5.84896 19.2461 5.90625C19.4753 5.96094 19.6823 6.03385 19.8672 6.125C20.0521 6.21354 20.2292 6.33203 20.3984 6.48047C20.5677 6.62891 20.7096 6.80078 20.8242 6.99609C20.9388 7.19141 21.0299 7.42708 21.0977 7.70312C21.1654 7.97656 21.1992 8.27995 21.1992 8.61328C21.1784 8.93359 21.1224 9.22786 21.0312 9.49609C20.9427 9.76432 20.8281 9.99609 20.6875 10.1914C20.5495 10.3867 20.3854 10.5612 20.1953 10.7148C20.0052 10.8685 19.806 10.9935 19.5977 11.0898C19.3919 11.1862 19.168 11.2656 18.9258 11.3281C18.6862 11.3906 18.4518 11.4349 18.2227 11.4609C17.9961 11.487 17.7617 11.5 17.5195 11.5C16.543 11.5 15.8021 11.5078 15.2969 11.5234C15.2865 11.4922 15.2812 11.4661 15.2812 11.4453C15.2812 11.4271 15.2865 11.3919 15.2969 11.3398C15.375 11.332 15.4375 11.3255 15.4844 11.3203C15.5312 11.3151 15.5951 11.306 15.6758 11.293C15.7591 11.2799 15.8255 11.2656 15.875 11.25C15.9271 11.2318 15.9805 11.2096 16.0352 11.1836C16.0898 11.1576 16.1302 11.1263 16.1562 11.0898C16.1849 11.0534 16.1992 11.0117 16.1992 10.9648C16.2305 10.1497 16.2461 9.32812 16.2461 8.5C16.2461 7.65625 16.2331 6.92839 16.207 6.31641C16.2044 6.2487 16.1745 6.19141 16.1172 6.14453C16.0599 6.09505 15.9766 6.05729 15.8672 6.03125C15.7604 6.00521 15.6693 5.98698 15.5938 5.97656C15.5208 5.96354 15.4245 5.95182 15.3047 5.94141C15.2943 5.89453 15.2891 5.86198 15.2891 5.84375C15.2891 5.82812 15.2943 5.79948 15.3047 5.75781ZM17.1211 6.31641C17.0872 7.20182 17.0703 8.02604 17.0703 8.78906C17.0703 9.21094 17.0846 10.0182 17.1133 11.2109C17.2253 11.2161 17.3854 11.2188 17.5938 11.2188C18.0156 11.2188 18.3906 11.1549 18.7188 11.0273C19.0469 10.8971 19.3164 10.7161 19.5273 10.4844C19.7383 10.2526 19.8971 9.97917 20.0039 9.66406C20.1133 9.34635 20.168 8.99609 20.168 8.61328C20.168 8.41536 20.1523 8.22135 20.1211 8.03125C20.0898 7.84115 20.0404 7.64714 19.9727 7.44922C19.9049 7.2513 19.8112 7.06901 19.6914 6.90234C19.5716 6.73568 19.4284 6.58724 19.2617 6.45703C19.0977 6.32422 18.8945 6.22135 18.6523 6.14844C18.4128 6.07292 18.1471 6.03516 17.8555 6.03516C17.5872 6.03516 17.3424 6.05208 17.1211 6.08594V6.31641ZM25.0781 9.42969H22.9492C22.9388 9.58594 22.9336 9.72396 22.9336 9.84375C22.9414 10.2318 23.0547 10.543 23.2734 10.7773C23.4922 11.0091 23.7852 11.125 24.1523 11.125C24.2513 11.125 24.3438 11.1146 24.4297 11.0938C24.5156 11.0703 24.5859 11.0443 24.6406 11.0156C24.6979 10.987 24.7565 10.9453 24.8164 10.8906C24.8763 10.8359 24.9193 10.793 24.9453 10.7617C24.974 10.7279 25.0117 10.6784 25.0586 10.6133C25.1055 10.5456 25.1367 10.5026 25.1523 10.4844C25.2148 10.4974 25.2656 10.526 25.3047 10.5703C25.1745 10.9193 24.9727 11.181 24.6992 11.3555C24.4258 11.5273 24.1289 11.6133 23.8086 11.6133C23.6497 11.6133 23.4948 11.5924 23.3438 11.5508C23.1953 11.5117 23.0508 11.4466 22.9102 11.3555C22.7695 11.2643 22.6471 11.1523 22.543 11.0195C22.4388 10.8841 22.3555 10.7161 22.293 10.5156C22.2305 10.3125 22.1992 10.0885 22.1992 9.84375C22.1992 9.29427 22.3672 8.84115 22.7031 8.48438C23.0391 8.1276 23.4518 7.94922 23.9414 7.94922C24.1576 7.94922 24.3451 7.98047 24.5039 8.04297C24.6654 8.10286 24.7904 8.1849 24.8789 8.28906C24.9701 8.39323 25.0365 8.50781 25.0781 8.63281C25.1224 8.75521 25.1445 8.88672 25.1445 9.02734C25.1445 9.15755 25.1224 9.29167 25.0781 9.42969ZM23.8477 8.20312C23.668 8.20312 23.4974 8.28255 23.3359 8.44141C23.1771 8.60026 23.0625 8.84115 22.9922 9.16406H24.3984C24.4245 9.0651 24.4375 8.97917 24.4375 8.90625C24.4375 8.70312 24.3906 8.53516 24.2969 8.40234C24.2031 8.26953 24.0534 8.20312 23.8477 8.20312ZM27.9922 11.3398C28.0078 11.3711 28.0156 11.4036 28.0156 11.4375C28.0156 11.4635 28.0078 11.4922 27.9922 11.5234C27.6484 11.5078 27.3151 11.5 26.9922 11.5C26.6745 11.5 26.3438 11.5078 26 11.5234C25.9896 11.4818 25.9844 11.4531 25.9844 11.4375C25.9844 11.4245 25.9896 11.3919 26 11.3398C26.0859 11.3294 26.1562 11.319 26.2109 11.3086C26.2656 11.2956 26.3333 11.276 26.4141 11.25C26.4948 11.224 26.556 11.1875 26.5977 11.1406C26.6393 11.0911 26.6615 11.0326 26.6641 10.9648C26.6745 10.707 26.6797 10.3945 26.6797 10.0273C26.6797 9.90495 26.6784 9.69661 26.6758 9.40234C26.6732 9.10807 26.6719 8.85026 26.6719 8.62891C26.5234 8.53776 26.2734 8.48438 25.9219 8.46875C25.9115 8.42708 25.9062 8.39453 25.9062 8.37109C25.9062 8.35547 25.9115 8.32682 25.9219 8.28516C26.4271 8.23307 26.8672 8.1263 27.2422 7.96484C27.3073 7.99089 27.3529 8.02474 27.3789 8.06641V8.68359C27.6315 8.46224 27.8737 8.28516 28.1055 8.15234C28.3372 8.01693 28.5716 7.94922 28.8086 7.94922C29.1055 7.94922 29.3151 8.03255 29.4375 8.19922C29.5625 8.36589 29.6276 8.6263 29.6328 8.98047L29.6719 10.9648C29.6745 11.0326 29.694 11.0911 29.7305 11.1406C29.7695 11.1875 29.8242 11.224 29.8945 11.25C29.9674 11.276 30.0273 11.2956 30.0742 11.3086C30.1211 11.319 30.1823 11.3294 30.2578 11.3398C30.2682 11.3919 30.2734 11.4271 30.2734 11.4453C30.2734 11.4661 30.2682 11.4922 30.2578 11.5234C29.9219 11.5078 29.612 11.5 29.3281 11.5C29.0521 11.5 28.7461 11.5078 28.4102 11.5234C28.3997 11.4818 28.3945 11.4505 28.3945 11.4297C28.3945 11.4115 28.3997 11.3815 28.4102 11.3398C28.4779 11.3294 28.5339 11.319 28.5781 11.3086C28.625 11.2956 28.6771 11.276 28.7344 11.25C28.7943 11.224 28.8385 11.1875 28.8672 11.1406C28.8984 11.0911 28.9141 11.0326 28.9141 10.9648L28.9219 9.10938C28.9219 8.63802 28.7799 8.40234 28.4961 8.40234C28.2305 8.40234 27.8581 8.57943 27.3789 8.93359C27.3789 9.69141 27.3893 10.3685 27.4102 10.9648C27.4128 11.0326 27.4323 11.0911 27.4688 11.1406C27.5078 11.1875 27.5625 11.224 27.6328 11.25C27.7031 11.276 27.7617 11.2956 27.8086 11.3086C27.8555 11.319 27.9167 11.3294 27.9922 11.3398ZM31.8828 7.28516C31.9089 7.27474 31.9388 7.26953 31.9727 7.26953C32.0065 7.26953 32.0417 7.27474 32.0781 7.28516V8.14062H33.2617C33.2773 8.17969 33.2852 8.22786 33.2852 8.28516C33.2852 8.33464 33.2773 8.38021 33.2617 8.42188H32.0781V10.5078C32.0781 10.9193 32.2669 11.125 32.6445 11.125C32.7878 11.125 32.9102 11.0977 33.0117 11.043C33.1159 10.9883 33.2305 10.9062 33.3555 10.7969C33.4206 10.8047 33.4635 10.8359 33.4844 10.8906C33.3698 11.0964 33.2005 11.2682 32.9766 11.4062C32.7526 11.5443 32.5065 11.6133 32.2383 11.6133C31.6081 11.6133 31.293 11.2318 31.293 10.4688V8.42188H30.8125C30.8021 8.375 30.7969 8.34505 30.7969 8.33203C30.7969 8.32943 30.8021 8.29948 30.8125 8.24219C30.9375 8.17969 31.0326 8.12891 31.0977 8.08984C31.1654 8.04818 31.25 7.98958 31.3516 7.91406C31.4557 7.83854 31.5495 7.75 31.6328 7.64844C31.7188 7.54427 31.8021 7.42318 31.8828 7.28516ZM33.9062 8.28516C34.4115 8.23307 34.8516 8.1263 35.2266 7.96484C35.2917 7.99089 35.3372 8.02474 35.3633 8.06641V8.73828C35.4596 8.55599 35.6029 8.37891 35.793 8.20703C35.9857 8.03516 36.1862 7.94922 36.3945 7.94922C36.5508 7.94922 36.6771 7.99609 36.7734 8.08984C36.8724 8.18099 36.9219 8.30729 36.9219 8.46875C36.9219 8.6224 36.8763 8.74219 36.7852 8.82812C36.694 8.91406 36.5794 8.95703 36.4414 8.95703C36.3138 8.95703 36.2083 8.91667 36.125 8.83594C36.0443 8.7526 36 8.64323 35.9922 8.50781C35.8828 8.55469 35.7578 8.65885 35.6172 8.82031C35.4792 8.98177 35.3945 9.14193 35.3633 9.30078C35.3633 9.88151 35.3737 10.4362 35.3945 10.9648C35.3971 11.0326 35.4219 11.0911 35.4688 11.1406C35.5156 11.1875 35.5846 11.224 35.6758 11.25C35.7669 11.276 35.8424 11.2956 35.9023 11.3086C35.9622 11.319 36.0404 11.3294 36.1367 11.3398C36.1523 11.3711 36.1602 11.4036 36.1602 11.4375C36.1602 11.4635 36.1523 11.4922 36.1367 11.5234C35.7461 11.5078 35.3594 11.5 34.9766 11.5C34.6589 11.5 34.3281 11.5078 33.9844 11.5234C33.974 11.4818 33.9688 11.4531 33.9688 11.4375C33.9688 11.4245 33.974 11.3919 33.9844 11.3398C34.0703 11.3294 34.1406 11.319 34.1953 11.3086C34.25 11.2956 34.3177 11.276 34.3984 11.25C34.4792 11.224 34.5404 11.1875 34.582 11.1406C34.6237 11.0911 34.6458 11.0326 34.6484 10.9648C34.6589 10.707 34.6641 10.3945 34.6641 10.0273C34.6641 9.90495 34.6628 9.69661 34.6602 9.40234C34.6576 9.10807 34.6562 8.85026 34.6562 8.62891C34.5078 8.53776 34.2578 8.48438 33.9062 8.46875C33.8958 8.42708 33.8906 8.39453 33.8906 8.37109C33.8906 8.35547 33.8958 8.32682 33.9062 8.28516ZM37.3555 8.03516C37.4492 8.04036 37.543 8.04557 37.6367 8.05078C37.7305 8.05599 37.8047 8.0599 37.8594 8.0625C37.9141 8.0651 37.9648 8.06641 38.0117 8.06641C38.0508 8.06641 38.0964 8.0651 38.1484 8.0625C38.2005 8.0599 38.2708 8.05599 38.3594 8.05078C38.4505 8.04557 38.5378 8.04036 38.6211 8.03516C38.668 8.05078 38.7057 8.09115 38.7344 8.15625C38.7318 8.17708 38.7266 8.20833 38.7188 8.25C38.7135 8.28906 38.7083 8.33724 38.7031 8.39453C38.7005 8.44922 38.6992 8.51693 38.6992 8.59766L38.6914 10.4531C38.6914 10.9219 38.8333 11.1562 39.1172 11.1562C39.3802 11.1562 39.7539 10.9831 40.2383 10.6367C40.2383 9.86068 40.2266 9.18099 40.2031 8.59766C40.2031 8.55078 40.194 8.50911 40.1758 8.47266C40.1576 8.4362 40.1289 8.40495 40.0898 8.37891C40.0534 8.35286 40.0195 8.33203 39.9883 8.31641C39.9596 8.29818 39.9167 8.28255 39.8594 8.26953C39.8021 8.25391 39.7617 8.24479 39.7383 8.24219C39.7148 8.23698 39.6758 8.22917 39.6211 8.21875C39.6107 8.17708 39.6055 8.14583 39.6055 8.125C39.6055 8.10677 39.6107 8.07682 39.6211 8.03516C39.7122 8.04036 39.8047 8.04557 39.8984 8.05078C39.9948 8.05599 40.0703 8.0599 40.125 8.0625C40.1797 8.0651 40.2305 8.06641 40.2773 8.06641C40.3164 8.06641 40.362 8.0651 40.4141 8.0625C40.4661 8.0599 40.5365 8.05599 40.625 8.05078C40.7161 8.04557 40.8034 8.04036 40.8867 8.03516C40.8997 8.04297 40.9102 8.05078 40.918 8.05859C40.9284 8.0638 40.9362 8.07161 40.9414 8.08203C40.9492 8.08984 40.9544 8.09635 40.957 8.10156C40.9596 8.10417 40.9635 8.11328 40.9688 8.12891C40.974 8.14193 40.9779 8.15104 40.9805 8.15625C40.9596 8.29688 40.9492 8.44401 40.9492 8.59766C40.9336 8.98047 40.9258 9.29167 40.9258 9.53125C40.9258 9.65625 40.9284 9.86589 40.9336 10.1602C40.9388 10.4544 40.9414 10.7122 40.9414 10.9336C41.0898 11.0195 41.3398 11.0729 41.6914 11.0938C41.7044 11.1589 41.7109 11.1927 41.7109 11.1953C41.7109 11.2109 41.7044 11.2383 41.6914 11.2773C41.1992 11.3242 40.7591 11.431 40.3711 11.5977C40.3034 11.569 40.2591 11.5339 40.2383 11.4922V10.8828C39.9779 11.1068 39.7318 11.2852 39.5 11.418C39.2708 11.5482 39.0391 11.6133 38.8047 11.6133C38.5078 11.6133 38.2969 11.5299 38.1719 11.3633C38.0495 11.1966 37.9857 10.9349 37.9805 10.5781L37.9492 8.59766C37.944 8.53776 37.9323 8.49349 37.9141 8.46484C37.8984 8.43359 37.8711 8.40495 37.832 8.37891C37.7956 8.35286 37.7617 8.33203 37.7305 8.31641C37.6992 8.29818 37.6549 8.28255 37.5977 8.26953C37.5404 8.25391 37.5 8.24479 37.4766 8.24219C37.4531 8.23698 37.4128 8.22917 37.3555 8.21875C37.3451 8.17708 37.3398 8.14583 37.3398 8.125C37.3398 8.10677 37.3451 8.07682 37.3555 8.03516ZM43.8008 11.6133C43.6732 11.6133 43.5573 11.6029 43.4531 11.582C43.3516 11.5612 43.2721 11.5391 43.2148 11.5156C43.1602 11.4922 43.0859 11.457 42.9922 11.4102C42.8906 11.4102 42.7409 11.4479 42.543 11.5234C42.5091 11.5026 42.4857 11.4792 42.4727 11.4531C42.4857 11.4115 42.5013 11.2695 42.5195 11.0273C42.5404 10.7852 42.5508 10.569 42.5508 10.3789C42.5846 10.3633 42.6458 10.3555 42.7344 10.3555C42.7812 10.5065 42.8294 10.6354 42.8789 10.7422C42.931 10.849 42.9961 10.9531 43.0742 11.0547C43.1549 11.1536 43.2513 11.2292 43.3633 11.2812C43.4779 11.3307 43.6081 11.3555 43.7539 11.3555C43.9805 11.3555 44.1576 11.2969 44.2852 11.1797C44.4154 11.0625 44.4805 10.9297 44.4805 10.7812C44.4805 10.6693 44.4622 10.5742 44.4258 10.4961C44.3893 10.418 44.3073 10.3359 44.1797 10.25C44.0547 10.1615 43.875 10.0742 43.6406 9.98828C43.4948 9.9362 43.3711 9.88802 43.2695 9.84375C43.168 9.79948 43.0625 9.74479 42.9531 9.67969C42.8464 9.61458 42.7604 9.54818 42.6953 9.48047C42.6302 9.41016 42.5768 9.32682 42.5352 9.23047C42.4935 9.13411 42.4727 9.02865 42.4727 8.91406C42.4727 8.83073 42.4818 8.7487 42.5 8.66797C42.5208 8.58464 42.5586 8.4987 42.6133 8.41016C42.6706 8.32161 42.7409 8.24479 42.8242 8.17969C42.9102 8.11198 43.0234 8.05729 43.1641 8.01562C43.3073 7.97135 43.4688 7.94922 43.6484 7.94922C43.7214 7.94922 43.7852 7.95312 43.8398 7.96094C43.8971 7.96875 43.9648 7.98307 44.043 8.00391C44.1237 8.02214 44.168 8.03255 44.1758 8.03516C44.2331 8.02214 44.2917 8.00521 44.3516 7.98438C44.4141 7.96354 44.4492 7.95182 44.457 7.94922H44.5586C44.6211 8.32422 44.7018 8.64323 44.8008 8.90625C44.7695 8.9401 44.7188 8.95703 44.6484 8.95703C44.4323 8.69661 44.2474 8.50651 44.0938 8.38672C43.9427 8.26432 43.7708 8.20312 43.5781 8.20312C43.4271 8.20312 43.2943 8.23698 43.1797 8.30469C43.0651 8.3724 43.0078 8.47526 43.0078 8.61328C43.0078 8.78776 43.0768 8.92448 43.2148 9.02344C43.3555 9.1224 43.6146 9.2487 43.9922 9.40234C44.1667 9.47266 44.3034 9.53125 44.4023 9.57812C44.5039 9.625 44.6055 9.68099 44.707 9.74609C44.8086 9.8112 44.8828 9.87891 44.9297 9.94922C44.9792 10.0169 45.0195 10.099 45.0508 10.1953C45.082 10.2917 45.0977 10.4036 45.0977 10.5312C45.0977 10.8073 44.9701 11.0573 44.7148 11.2812C44.4622 11.5026 44.1576 11.6133 43.8008 11.6133ZM46.9062 7.28516C46.9323 7.27474 46.9622 7.26953 46.9961 7.26953C47.0299 7.26953 47.0651 7.27474 47.1016 7.28516V8.14062H48.2852C48.3008 8.17969 48.3086 8.22786 48.3086 8.28516C48.3086 8.33464 48.3008 8.38021 48.2852 8.42188H47.1016V10.5078C47.1016 10.9193 47.2904 11.125 47.668 11.125C47.8112 11.125 47.9336 11.0977 48.0352 11.043C48.1393 10.9883 48.2539 10.9062 48.3789 10.7969C48.444 10.8047 48.487 10.8359 48.5078 10.8906C48.3932 11.0964 48.224 11.2682 48 11.4062C47.776 11.5443 47.5299 11.6133 47.2617 11.6133C46.6315 11.6133 46.3164 11.2318 46.3164 10.4688V8.42188H45.8359C45.8255 8.375 45.8203 8.34505 45.8203 8.33203C45.8203 8.32943 45.8255 8.29948 45.8359 8.24219C45.9609 8.17969 46.056 8.12891 46.1211 8.08984C46.1888 8.04818 46.2734 7.98958 46.375 7.91406C46.4792 7.83854 46.5729 7.75 46.6562 7.64844C46.7422 7.54427 46.8255 7.42318 46.9062 7.28516ZM54.1914 5.62891C54.3971 5.62891 54.6016 5.64323 54.8047 5.67188C55.0104 5.69792 55.207 5.73047 55.3945 5.76953C55.5846 5.80599 55.7643 5.84245 55.9336 5.87891C56.1029 5.91536 56.2552 5.94141 56.3906 5.95703C56.3594 6.05078 56.3438 6.21615 56.3438 6.45312C56.3438 6.91406 56.4128 7.3138 56.5508 7.65234C56.5352 7.69922 56.487 7.72786 56.4062 7.73828L56.2383 7.37891C56.1549 7.19922 56.0547 7.02214 55.9375 6.84766C55.8203 6.67057 55.6797 6.51302 55.5156 6.375C55.3516 6.23438 55.1602 6.12109 54.9414 6.03516C54.7253 5.94922 54.4753 5.90625 54.1914 5.90625C53.9466 5.90625 53.7292 5.94661 53.5391 6.02734C53.349 6.10807 53.1823 6.21745 53.0391 6.35547C52.8958 6.49089 52.7747 6.64974 52.6758 6.83203C52.5768 7.01172 52.4961 7.20312 52.4336 7.40625C52.3737 7.60938 52.3294 7.81771 52.3008 8.03125C52.2747 8.24479 52.2617 8.45182 52.2617 8.65234C52.2617 8.98568 52.3047 9.30469 52.3906 9.60938C52.4792 9.91406 52.6159 10.1836 52.8008 10.418C52.9857 10.6497 53.2201 10.8346 53.5039 10.9727C53.7904 11.1107 54.1315 11.1797 54.5273 11.1797C55.2852 11.1797 55.8581 10.9427 56.2461 10.4688C56.2878 10.4688 56.3216 10.4805 56.3477 10.5039C56.3763 10.5273 56.3906 10.556 56.3906 10.5898C56.2656 10.7747 56.1133 10.9349 55.9336 11.0703C55.7565 11.2057 55.5677 11.3177 55.3672 11.4062C55.1667 11.4922 54.9635 11.556 54.7578 11.5977C54.5547 11.6393 54.3659 11.6602 54.1914 11.6602C54.0013 11.6602 53.7956 11.6393 53.5742 11.5977C53.3555 11.5586 53.1354 11.4922 52.9141 11.3984C52.6953 11.3047 52.4844 11.1823 52.2812 11.0312C52.0807 10.8776 51.9023 10.6901 51.7461 10.4688C51.5898 10.2448 51.4648 9.98307 51.3711 9.68359C51.2773 9.38411 51.2305 9.04036 51.2305 8.65234C51.2305 8.26172 51.2773 7.91667 51.3711 7.61719C51.4648 7.3151 51.5898 7.05208 51.7461 6.82812C51.9049 6.60417 52.0859 6.41667 52.2891 6.26562C52.4948 6.11198 52.707 5.98828 52.9258 5.89453C53.1445 5.79818 53.3633 5.73047 53.582 5.69141C53.8008 5.64974 54.0039 5.62891 54.1914 5.62891ZM57.4375 8.93359C57.4375 8.64714 57.5677 8.41146 57.8281 8.22656C58.0911 8.04167 58.401 7.94922 58.7578 7.94922C59.1953 7.94922 59.5026 8.03646 59.6797 8.21094C59.8594 8.38542 59.9492 8.67969 59.9492 9.09375V10.7148C59.9492 10.8607 60.0026 10.9336 60.1094 10.9336C60.1953 10.9336 60.3047 10.8294 60.4375 10.6211C60.5312 10.6289 60.5951 10.6706 60.6289 10.7461C60.6107 10.7721 60.5794 10.819 60.5352 10.8867C60.4909 10.9544 60.4583 11.0026 60.4375 11.0312C60.4167 11.0599 60.3841 11.1042 60.3398 11.1641C60.2956 11.2214 60.2591 11.2643 60.2305 11.293C60.2044 11.3216 60.168 11.3555 60.1211 11.3945C60.0768 11.4336 60.0352 11.4635 59.9961 11.4844C59.9596 11.5026 59.9167 11.5182 59.8672 11.5312C59.8177 11.5469 59.7682 11.5547 59.7188 11.5547C59.5885 11.5547 59.4805 11.5078 59.3945 11.4141C59.3112 11.3203 59.2617 11.1758 59.2461 10.9805C59.2435 10.9831 59.2031 11.0208 59.125 11.0938C59.0469 11.1667 58.9922 11.2161 58.9609 11.2422C58.9323 11.2656 58.8763 11.3086 58.793 11.3711C58.7122 11.431 58.6432 11.474 58.5859 11.5C58.5286 11.526 58.457 11.5508 58.3711 11.5742C58.2852 11.6003 58.2005 11.6133 58.1172 11.6133C57.9844 11.6133 57.8659 11.5951 57.7617 11.5586C57.6602 11.5221 57.5807 11.4779 57.5234 11.4258C57.4661 11.3737 57.4193 11.3138 57.3828 11.2461C57.3464 11.1758 57.3216 11.112 57.3086 11.0547C57.2982 10.9974 57.293 10.9401 57.293 10.8828C57.293 10.7083 57.3216 10.5612 57.3789 10.4414C57.4388 10.3216 57.5482 10.2096 57.707 10.1055C57.8685 10.0013 58.0664 9.90885 58.3008 9.82812C58.5352 9.7474 58.8503 9.65625 59.2461 9.55469V9.01172C59.2461 8.7487 59.1875 8.55208 59.0703 8.42188C58.9557 8.29167 58.8008 8.22656 58.6055 8.22656C58.431 8.22656 58.2839 8.26172 58.1641 8.33203C58.0469 8.39974 57.9753 8.47917 57.9492 8.57031C58.2044 8.60938 58.332 8.7487 58.332 8.98828C58.332 9.09766 58.293 9.19401 58.2148 9.27734C58.1367 9.36068 58.0273 9.40234 57.8867 9.40234C57.7695 9.40234 57.6654 9.36198 57.5742 9.28125C57.4831 9.19792 57.4375 9.08203 57.4375 8.93359ZM59.2461 10.6211V9.80469C59.0065 9.85938 58.8086 9.91927 58.6523 9.98438C58.4961 10.0469 58.3763 10.1159 58.293 10.1914C58.2122 10.2669 58.1562 10.3451 58.125 10.4258C58.0938 10.5039 58.0781 10.5951 58.0781 10.6992C58.0781 10.8294 58.1159 10.9323 58.1914 11.0078C58.2695 11.0807 58.3646 11.1172 58.4766 11.1172C58.737 11.1172 58.9935 10.9518 59.2461 10.6211ZM60.8828 8.28516C61.3932 8.23307 61.8333 8.1263 62.2031 7.96484C62.2734 7.98828 62.319 8.02214 62.3398 8.06641V8.52344C62.7409 8.14062 63.1432 7.94922 63.5469 7.94922C63.9479 7.94922 64.2747 8.09896 64.5273 8.39844C64.7799 8.69531 64.9062 9.09766 64.9062 9.60547C64.9062 9.79557 64.8854 9.98307 64.8438 10.168C64.8021 10.3503 64.7331 10.5299 64.6367 10.707C64.543 10.8815 64.4258 11.0352 64.2852 11.168C64.1471 11.3008 63.9714 11.4089 63.7578 11.4922C63.5443 11.5729 63.3086 11.6133 63.0508 11.6133C62.8086 11.6133 62.5742 11.5677 62.3477 11.4766C62.3477 12.1849 62.3555 12.707 62.3711 13.043C62.3737 13.0977 62.3958 13.1458 62.4375 13.1875C62.4792 13.2318 62.5273 13.2656 62.582 13.2891C62.6367 13.3151 62.7109 13.3372 62.8047 13.3555C62.8984 13.3763 62.9753 13.3893 63.0352 13.3945C63.0977 13.4023 63.1784 13.4115 63.2773 13.4219C63.293 13.4531 63.3008 13.4844 63.3008 13.5156C63.3008 13.5469 63.293 13.5768 63.2773 13.6055C62.7357 13.5872 62.2956 13.5781 61.957 13.5781C61.6966 13.5781 61.3659 13.5872 60.9648 13.6055C60.9544 13.5586 60.9492 13.5286 60.9492 13.5156C60.9492 13.5052 60.9544 13.474 60.9648 13.4219C61.056 13.4089 61.1263 13.3971 61.1758 13.3867C61.2253 13.3763 61.2917 13.3568 61.375 13.3281C61.4583 13.3021 61.5208 13.2643 61.5625 13.2148C61.6042 13.168 61.6263 13.1107 61.6289 13.043C61.6393 12.7878 61.6445 12.2122 61.6445 11.3164C61.6445 10.8997 61.6432 10.388 61.6406 9.78125C61.638 9.17448 61.6367 8.79036 61.6367 8.62891C61.4883 8.53776 61.237 8.48438 60.8828 8.46875C60.8724 8.42708 60.8672 8.39453 60.8672 8.37109C60.8672 8.35547 60.8724 8.32682 60.8828 8.28516ZM63.1719 8.46094C63.0026 8.46094 62.8542 8.49219 62.7266 8.55469C62.599 8.61719 62.4701 8.70833 62.3398 8.82812V10.8594C62.4935 11.1901 62.7682 11.3555 63.1641 11.3555C63.2422 11.3555 63.3203 11.3424 63.3984 11.3164C63.4792 11.2904 63.5638 11.2409 63.6523 11.168C63.7409 11.0951 63.8177 11.0026 63.8828 10.8906C63.9505 10.7786 64.0065 10.6276 64.0508 10.4375C64.0951 10.2474 64.1172 10.0312 64.1172 9.78906C64.1172 9.53906 64.0846 9.31641 64.0195 9.12109C63.9544 8.92578 63.849 8.76693 63.7031 8.64453C63.5573 8.52214 63.3802 8.46094 63.1719 8.46094ZM65.6875 8.28516C66.1927 8.23307 66.6328 8.1263 67.0078 7.96484C67.0729 7.99089 67.1185 8.02474 67.1445 8.06641C67.1445 9.41797 67.1549 10.3841 67.1758 10.9648C67.1784 11.0326 67.1979 11.0911 67.2344 11.1406C67.2734 11.1875 67.3281 11.224 67.3984 11.25C67.4688 11.276 67.5273 11.2956 67.5742 11.3086C67.6211 11.319 67.6823 11.3294 67.7578 11.3398C67.7734 11.3711 67.7812 11.4036 67.7812 11.4375C67.7812 11.4714 67.7734 11.5 67.7578 11.5234C67.4141 11.5078 67.0807 11.5 66.7578 11.5C66.4401 11.5 66.1094 11.5078 65.7656 11.5234C65.7552 11.4818 65.75 11.4531 65.75 11.4375C65.75 11.4245 65.7552 11.3919 65.7656 11.3398C65.8516 11.3294 65.9219 11.319 65.9766 11.3086C66.0312 11.2956 66.099 11.276 66.1797 11.25C66.2604 11.224 66.3216 11.1875 66.3633 11.1406C66.4049 11.0911 66.4271 11.0326 66.4297 10.9648C66.4401 10.707 66.4453 10.3945 66.4453 10.0273C66.4453 9.90495 66.444 9.69661 66.4414 9.40234C66.4388 9.10807 66.4375 8.85026 66.4375 8.62891C66.2891 8.53776 66.0391 8.48438 65.6875 8.46875C65.6771 8.42708 65.6719 8.39453 65.6719 8.37109C65.6719 8.35547 65.6771 8.32682 65.6875 8.28516ZM66.3008 6.65234C66.3008 6.51953 66.3477 6.40625 66.4414 6.3125C66.5378 6.21875 66.651 6.17188 66.7812 6.17188C66.9141 6.17188 67.0273 6.21875 67.1211 6.3125C67.2148 6.40625 67.2617 6.51953 67.2617 6.65234C67.2617 6.78255 67.2148 6.89583 67.1211 6.99219C67.0273 7.08594 66.9141 7.13281 66.7812 7.13281C66.651 7.13281 66.5378 7.08594 66.4414 6.99219C66.3477 6.89583 66.3008 6.78255 66.3008 6.65234ZM69.4297 7.28516C69.4557 7.27474 69.4857 7.26953 69.5195 7.26953C69.5534 7.26953 69.5885 7.27474 69.625 7.28516V8.14062H70.8086C70.8242 8.17969 70.832 8.22786 70.832 8.28516C70.832 8.33464 70.8242 8.38021 70.8086 8.42188H69.625V10.5078C69.625 10.9193 69.8138 11.125 70.1914 11.125C70.3346 11.125 70.457 11.0977 70.5586 11.043C70.6628 10.9883 70.7773 10.9062 70.9023 10.7969C70.9674 10.8047 71.0104 10.8359 71.0312 10.8906C70.9167 11.0964 70.7474 11.2682 70.5234 11.4062C70.2995 11.5443 70.0534 11.6133 69.7852 11.6133C69.1549 11.6133 68.8398 11.2318 68.8398 10.4688V8.42188H68.3594C68.349 8.375 68.3438 8.34505 68.3438 8.33203C68.3438 8.32943 68.349 8.29948 68.3594 8.24219C68.4844 8.17969 68.5794 8.12891 68.6445 8.08984C68.7122 8.04818 68.7969 7.98958 68.8984 7.91406C69.0026 7.83854 69.0964 7.75 69.1797 7.64844C69.2656 7.54427 69.349 7.42318 69.4297 7.28516ZM71.8203 8.93359C71.8203 8.64714 71.9505 8.41146 72.2109 8.22656C72.474 8.04167 72.7839 7.94922 73.1406 7.94922C73.5781 7.94922 73.8854 8.03646 74.0625 8.21094C74.2422 8.38542 74.332 8.67969 74.332 9.09375V10.7148C74.332 10.8607 74.3854 10.9336 74.4922 10.9336C74.5781 10.9336 74.6875 10.8294 74.8203 10.6211C74.9141 10.6289 74.9779 10.6706 75.0117 10.7461C74.9935 10.7721 74.9622 10.819 74.918 10.8867C74.8737 10.9544 74.8411 11.0026 74.8203 11.0312C74.7995 11.0599 74.7669 11.1042 74.7227 11.1641C74.6784 11.2214 74.6419 11.2643 74.6133 11.293C74.5872 11.3216 74.5508 11.3555 74.5039 11.3945C74.4596 11.4336 74.418 11.4635 74.3789 11.4844C74.3424 11.5026 74.2995 11.5182 74.25 11.5312C74.2005 11.5469 74.151 11.5547 74.1016 11.5547C73.9714 11.5547 73.8633 11.5078 73.7773 11.4141C73.694 11.3203 73.6445 11.1758 73.6289 10.9805C73.6263 10.9831 73.5859 11.0208 73.5078 11.0938C73.4297 11.1667 73.375 11.2161 73.3438 11.2422C73.3151 11.2656 73.2591 11.3086 73.1758 11.3711C73.0951 11.431 73.026 11.474 72.9688 11.5C72.9115 11.526 72.8398 11.5508 72.7539 11.5742C72.668 11.6003 72.5833 11.6133 72.5 11.6133C72.3672 11.6133 72.2487 11.5951 72.1445 11.5586C72.043 11.5221 71.9635 11.4779 71.9062 11.4258C71.849 11.3737 71.8021 11.3138 71.7656 11.2461C71.7292 11.1758 71.7044 11.112 71.6914 11.0547C71.681 10.9974 71.6758 10.9401 71.6758 10.8828C71.6758 10.7083 71.7044 10.5612 71.7617 10.4414C71.8216 10.3216 71.931 10.2096 72.0898 10.1055C72.2513 10.0013 72.4492 9.90885 72.6836 9.82812C72.918 9.7474 73.2331 9.65625 73.6289 9.55469V9.01172C73.6289 8.7487 73.5703 8.55208 73.4531 8.42188C73.3385 8.29167 73.1836 8.22656 72.9883 8.22656C72.8138 8.22656 72.6667 8.26172 72.5469 8.33203C72.4297 8.39974 72.3581 8.47917 72.332 8.57031C72.5872 8.60938 72.7148 8.7487 72.7148 8.98828C72.7148 9.09766 72.6758 9.19401 72.5977 9.27734C72.5195 9.36068 72.4102 9.40234 72.2695 9.40234C72.1523 9.40234 72.0482 9.36198 71.957 9.28125C71.8659 9.19792 71.8203 9.08203 71.8203 8.93359ZM73.6289 10.6211V9.80469C73.3893 9.85938 73.1914 9.91927 73.0352 9.98438C72.8789 10.0469 72.7591 10.1159 72.6758 10.1914C72.5951 10.2669 72.5391 10.3451 72.5078 10.4258C72.4766 10.5039 72.4609 10.5951 72.4609 10.6992C72.4609 10.8294 72.4987 10.9323 72.5742 11.0078C72.6523 11.0807 72.7474 11.1172 72.8594 11.1172C73.1198 11.1172 73.3763 10.9518 73.6289 10.6211ZM75.4688 5.88281C75.9635 5.83594 76.4023 5.72917 76.7852 5.5625C76.8555 5.59115 76.901 5.6263 76.9219 5.66797C76.9219 8.61849 76.9323 10.3841 76.9531 10.9648C76.9557 11.0195 76.9714 11.069 77 11.1133C77.0312 11.1549 77.0651 11.1888 77.1016 11.2148C77.138 11.2383 77.1875 11.2604 77.25 11.2812C77.3125 11.2995 77.3607 11.3125 77.3945 11.3203C77.431 11.3255 77.4792 11.332 77.5391 11.3398C77.5547 11.3711 77.5625 11.4036 77.5625 11.4375C77.5625 11.4714 77.5547 11.5 77.5391 11.5234C77.1953 11.5078 76.862 11.5 76.5391 11.5C76.2214 11.5 75.8906 11.5078 75.5469 11.5234C75.5365 11.4818 75.5312 11.4531 75.5312 11.4375C75.5312 11.4245 75.5365 11.3919 75.5469 11.3398C75.6328 11.3294 75.7018 11.319 75.7539 11.3086C75.8086 11.2956 75.8763 11.276 75.957 11.25C76.0404 11.224 76.1029 11.1875 76.1445 11.1406C76.1862 11.0911 76.2083 11.0326 76.2109 10.9648C76.2214 10.707 76.2266 10.1302 76.2266 9.23438C76.2266 8.82031 76.2253 8.25651 76.2227 7.54297C76.2201 6.82943 76.2188 6.39062 76.2188 6.22656C76.0703 6.14062 75.8203 6.08724 75.4688 6.06641C75.4557 6.03255 75.4492 6.0013 75.4492 5.97266C75.4492 5.94661 75.4557 5.91667 75.4688 5.88281ZM80.1875 5.75781C80.7708 5.77865 81.224 5.78906 81.5469 5.78906C81.8698 5.78906 82.3229 5.77865 82.9062 5.75781C82.9167 5.79948 82.9219 5.82812 82.9219 5.84375C82.9219 5.8724 82.9167 5.90495 82.9062 5.94141C82.7865 5.95182 82.6888 5.96354 82.6133 5.97656C82.5404 5.98698 82.4492 6.00521 82.3398 6.03125C82.2331 6.05729 82.151 6.09505 82.0938 6.14453C82.0365 6.19141 82.0065 6.2487 82.0039 6.31641C81.9701 7.20182 81.9531 8.02604 81.9531 8.78906C81.9531 9.34635 81.9674 10.0716 81.9961 10.9648C81.9987 11.0326 82.0286 11.0911 82.0859 11.1406C82.1432 11.1875 82.2253 11.224 82.332 11.25C82.4414 11.276 82.5326 11.2956 82.6055 11.3086C82.681 11.319 82.7786 11.3294 82.8984 11.3398C82.9089 11.3711 82.9141 11.4062 82.9141 11.4453C82.9141 11.4661 82.9089 11.4922 82.8984 11.5234C82.4557 11.5078 82.0026 11.5 81.5391 11.5C81.0703 11.5 80.6172 11.5078 80.1797 11.5234C80.1693 11.4922 80.1641 11.4661 80.1641 11.4453C80.1641 11.401 80.1693 11.3659 80.1797 11.3398C80.2578 11.332 80.3203 11.3255 80.3672 11.3203C80.4141 11.3151 80.4779 11.306 80.5586 11.293C80.6419 11.2799 80.7083 11.2656 80.7578 11.25C80.8099 11.2318 80.8633 11.2096 80.918 11.1836C80.9727 11.1576 81.013 11.1263 81.0391 11.0898C81.0677 11.0534 81.082 11.0117 81.082 10.9648C81.1133 10.1497 81.1289 9.32812 81.1289 8.5C81.1289 7.65625 81.1159 6.92839 81.0898 6.31641C81.0872 6.2487 81.0573 6.19141 81 6.14453C80.9427 6.09505 80.8594 6.05729 80.75 6.03125C80.6432 6.00521 80.5521 5.98698 80.4766 5.97656C80.4036 5.96354 80.3073 5.95182 80.1875 5.94141C80.1771 5.89453 80.1719 5.86198 80.1719 5.84375C80.1719 5.81771 80.1771 5.78906 80.1875 5.75781ZM85.5703 11.3398C85.5859 11.3711 85.5938 11.4036 85.5938 11.4375C85.5938 11.4635 85.5859 11.4922 85.5703 11.5234C85.2266 11.5078 84.8932 11.5 84.5703 11.5C84.2526 11.5 83.9219 11.5078 83.5781 11.5234C83.5677 11.4818 83.5625 11.4531 83.5625 11.4375C83.5625 11.4245 83.5677 11.3919 83.5781 11.3398C83.6641 11.3294 83.7344 11.319 83.7891 11.3086C83.8438 11.2956 83.9115 11.276 83.9922 11.25C84.0729 11.224 84.1341 11.1875 84.1758 11.1406C84.2174 11.0911 84.2396 11.0326 84.2422 10.9648C84.2526 10.707 84.2578 10.3945 84.2578 10.0273C84.2578 9.90495 84.2565 9.69661 84.2539 9.40234C84.2513 9.10807 84.25 8.85026 84.25 8.62891C84.1016 8.53776 83.8516 8.48438 83.5 8.46875C83.4896 8.42708 83.4844 8.39453 83.4844 8.37109C83.4844 8.35547 83.4896 8.32682 83.5 8.28516C84.0052 8.23307 84.4453 8.1263 84.8203 7.96484C84.8854 7.99089 84.931 8.02474 84.957 8.06641V8.68359C85.2096 8.46224 85.4518 8.28516 85.6836 8.15234C85.9154 8.01693 86.1497 7.94922 86.3867 7.94922C86.6836 7.94922 86.8932 8.03255 87.0156 8.19922C87.1406 8.36589 87.2057 8.6263 87.2109 8.98047L87.25 10.9648C87.2526 11.0326 87.2721 11.0911 87.3086 11.1406C87.3477 11.1875 87.4023 11.224 87.4727 11.25C87.5456 11.276 87.6055 11.2956 87.6523 11.3086C87.6992 11.319 87.7604 11.3294 87.8359 11.3398C87.8464 11.3919 87.8516 11.4271 87.8516 11.4453C87.8516 11.4661 87.8464 11.4922 87.8359 11.5234C87.5 11.5078 87.1901 11.5 86.9062 11.5C86.6302 11.5 86.3242 11.5078 85.9883 11.5234C85.9779 11.4818 85.9727 11.4505 85.9727 11.4297C85.9727 11.4115 85.9779 11.3815 85.9883 11.3398C86.056 11.3294 86.112 11.319 86.1562 11.3086C86.2031 11.2956 86.2552 11.276 86.3125 11.25C86.3724 11.224 86.4167 11.1875 86.4453 11.1406C86.4766 11.0911 86.4922 11.0326 86.4922 10.9648L86.5 9.10938C86.5 8.63802 86.3581 8.40234 86.0742 8.40234C85.8086 8.40234 85.4362 8.57943 84.957 8.93359C84.957 9.69141 84.9674 10.3685 84.9883 10.9648C84.9909 11.0326 85.0104 11.0911 85.0469 11.1406C85.0859 11.1875 85.1406 11.224 85.2109 11.25C85.2812 11.276 85.3398 11.2956 85.3867 11.3086C85.4336 11.319 85.4948 11.3294 85.5703 11.3398ZM87.9102 8.03516C88.2539 8.05078 88.6003 8.05859 88.9492 8.05859C89.2435 8.05859 89.5586 8.05078 89.8945 8.03516C89.9049 8.07682 89.9102 8.10938 89.9102 8.13281C89.9102 8.14844 89.9049 8.17708 89.8945 8.21875C89.8216 8.22396 89.7617 8.23047 89.7148 8.23828C89.6706 8.24349 89.6146 8.25391 89.5469 8.26953C89.4792 8.28516 89.4284 8.30859 89.3945 8.33984C89.3607 8.37109 89.3438 8.40885 89.3438 8.45312C89.3438 8.47656 89.3542 8.52474 89.375 8.59766L90.0859 10.5703H90.1094L90.9414 8.59766C90.9701 8.52734 90.9844 8.47135 90.9844 8.42969C90.9844 8.3099 90.8346 8.23958 90.5352 8.21875C90.5247 8.17708 90.5195 8.14844 90.5195 8.13281C90.5195 8.10938 90.5247 8.07682 90.5352 8.03516C90.8398 8.05078 91.0286 8.05859 91.1016 8.05859C91.3203 8.05859 91.5977 8.05078 91.9336 8.03516C91.944 8.06641 91.9492 8.09375 91.9492 8.11719C91.9492 8.13281 91.944 8.16667 91.9336 8.21875C91.6237 8.23177 91.4128 8.35807 91.3008 8.59766L89.9648 11.6133H89.7734L88.5898 8.59766C88.5638 8.52995 88.5247 8.47266 88.4727 8.42578C88.4232 8.3763 88.3581 8.33854 88.2773 8.3125C88.1992 8.28385 88.138 8.26432 88.0938 8.25391C88.0521 8.24349 87.9909 8.23177 87.9102 8.21875C87.8997 8.19792 87.8945 8.16927 87.8945 8.13281C87.8945 8.09375 87.8997 8.0612 87.9102 8.03516ZM95.2344 9.42969H93.1055C93.0951 9.58594 93.0898 9.72396 93.0898 9.84375C93.0977 10.2318 93.2109 10.543 93.4297 10.7773C93.6484 11.0091 93.9414 11.125 94.3086 11.125C94.4076 11.125 94.5 11.1146 94.5859 11.0938C94.6719 11.0703 94.7422 11.0443 94.7969 11.0156C94.8542 10.987 94.9128 10.9453 94.9727 10.8906C95.0326 10.8359 95.0755 10.793 95.1016 10.7617C95.1302 10.7279 95.168 10.6784 95.2148 10.6133C95.2617 10.5456 95.293 10.5026 95.3086 10.4844C95.3711 10.4974 95.4219 10.526 95.4609 10.5703C95.3307 10.9193 95.1289 11.181 94.8555 11.3555C94.582 11.5273 94.2852 11.6133 93.9648 11.6133C93.806 11.6133 93.651 11.5924 93.5 11.5508C93.3516 11.5117 93.207 11.4466 93.0664 11.3555C92.9258 11.2643 92.8034 11.1523 92.6992 11.0195C92.5951 10.8841 92.5117 10.7161 92.4492 10.5156C92.3867 10.3125 92.3555 10.0885 92.3555 9.84375C92.3555 9.29427 92.5234 8.84115 92.8594 8.48438C93.1953 8.1276 93.6081 7.94922 94.0977 7.94922C94.3138 7.94922 94.5013 7.98047 94.6602 8.04297C94.8216 8.10286 94.9466 8.1849 95.0352 8.28906C95.1263 8.39323 95.1927 8.50781 95.2344 8.63281C95.2786 8.75521 95.3008 8.88672 95.3008 9.02734C95.3008 9.15755 95.2786 9.29167 95.2344 9.42969ZM94.0039 8.20312C93.8242 8.20312 93.6536 8.28255 93.4922 8.44141C93.3333 8.60026 93.2188 8.84115 93.1484 9.16406H94.5547C94.5807 9.0651 94.5938 8.97917 94.5938 8.90625C94.5938 8.70312 94.5469 8.53516 94.4531 8.40234C94.3594 8.26953 94.2096 8.20312 94.0039 8.20312ZM97.5898 11.6133C97.4622 11.6133 97.3464 11.6029 97.2422 11.582C97.1406 11.5612 97.0612 11.5391 97.0039 11.5156C96.9492 11.4922 96.875 11.457 96.7812 11.4102C96.6797 11.4102 96.5299 11.4479 96.332 11.5234C96.2982 11.5026 96.2747 11.4792 96.2617 11.4531C96.2747 11.4115 96.2904 11.2695 96.3086 11.0273C96.3294 10.7852 96.3398 10.569 96.3398 10.3789C96.3737 10.3633 96.4349 10.3555 96.5234 10.3555C96.5703 10.5065 96.6185 10.6354 96.668 10.7422C96.7201 10.849 96.7852 10.9531 96.8633 11.0547C96.944 11.1536 97.0404 11.2292 97.1523 11.2812C97.2669 11.3307 97.3971 11.3555 97.543 11.3555C97.7695 11.3555 97.9466 11.2969 98.0742 11.1797C98.2044 11.0625 98.2695 10.9297 98.2695 10.7812C98.2695 10.6693 98.2513 10.5742 98.2148 10.4961C98.1784 10.418 98.0964 10.3359 97.9688 10.25C97.8438 10.1615 97.6641 10.0742 97.4297 9.98828C97.2839 9.9362 97.1602 9.88802 97.0586 9.84375C96.957 9.79948 96.8516 9.74479 96.7422 9.67969C96.6354 9.61458 96.5495 9.54818 96.4844 9.48047C96.4193 9.41016 96.3659 9.32682 96.3242 9.23047C96.2826 9.13411 96.2617 9.02865 96.2617 8.91406C96.2617 8.83073 96.2708 8.7487 96.2891 8.66797C96.3099 8.58464 96.3477 8.4987 96.4023 8.41016C96.4596 8.32161 96.5299 8.24479 96.6133 8.17969C96.6992 8.11198 96.8125 8.05729 96.9531 8.01562C97.0964 7.97135 97.2578 7.94922 97.4375 7.94922C97.5104 7.94922 97.5742 7.95312 97.6289 7.96094C97.6862 7.96875 97.7539 7.98307 97.832 8.00391C97.9128 8.02214 97.957 8.03255 97.9648 8.03516C98.0221 8.02214 98.0807 8.00521 98.1406 7.98438C98.2031 7.96354 98.2383 7.95182 98.2461 7.94922H98.3477C98.4102 8.32422 98.4909 8.64323 98.5898 8.90625C98.5586 8.9401 98.5078 8.95703 98.4375 8.95703C98.2214 8.69661 98.0365 8.50651 97.8828 8.38672C97.7318 8.26432 97.5599 8.20312 97.3672 8.20312C97.2161 8.20312 97.0833 8.23698 96.9688 8.30469C96.8542 8.3724 96.7969 8.47526 96.7969 8.61328C96.7969 8.78776 96.8659 8.92448 97.0039 9.02344C97.1445 9.1224 97.4036 9.2487 97.7812 9.40234C97.9557 9.47266 98.0924 9.53125 98.1914 9.57812C98.293 9.625 98.3945 9.68099 98.4961 9.74609C98.5977 9.8112 98.6719 9.87891 98.7188 9.94922C98.7682 10.0169 98.8086 10.099 98.8398 10.1953C98.8711 10.2917 98.8867 10.4036 98.8867 10.5312C98.8867 10.8073 98.7591 11.0573 98.5039 11.2812C98.2513 11.5026 97.9466 11.6133 97.5898 11.6133ZM100.695 7.28516C100.721 7.27474 100.751 7.26953 100.785 7.26953C100.819 7.26953 100.854 7.27474 100.891 7.28516V8.14062H102.074C102.09 8.17969 102.098 8.22786 102.098 8.28516C102.098 8.33464 102.09 8.38021 102.074 8.42188H100.891V10.5078C100.891 10.9193 101.079 11.125 101.457 11.125C101.6 11.125 101.723 11.0977 101.824 11.043C101.928 10.9883 102.043 10.9062 102.168 10.7969C102.233 10.8047 102.276 10.8359 102.297 10.8906C102.182 11.0964 102.013 11.2682 101.789 11.4062C101.565 11.5443 101.319 11.6133 101.051 11.6133C100.421 11.6133 100.105 11.2318 100.105 10.4688V8.42188H99.625C99.6146 8.375 99.6094 8.34505 99.6094 8.33203C99.6094 8.32943 99.6146 8.29948 99.625 8.24219C99.75 8.17969 99.8451 8.12891 99.9102 8.08984C99.9779 8.04818 100.062 7.98958 100.164 7.91406C100.268 7.83854 100.362 7.75 100.445 7.64844C100.531 7.54427 100.615 7.42318 100.695 7.28516ZM107.352 11.3398C107.417 11.3294 107.47 11.319 107.512 11.3086C107.556 11.2956 107.604 11.276 107.656 11.25C107.708 11.224 107.747 11.1875 107.773 11.1406C107.799 11.0911 107.812 11.0326 107.812 10.9648L107.82 9.10938C107.82 8.63802 107.68 8.40234 107.398 8.40234C107.258 8.40234 107.105 8.44661 106.941 8.53516C106.777 8.6237 106.581 8.75651 106.352 8.93359V8.98047L106.383 10.9648C106.385 11.0326 106.405 11.0911 106.441 11.1406C106.48 11.1875 106.535 11.224 106.605 11.25C106.676 11.276 106.734 11.2956 106.781 11.3086C106.828 11.319 106.889 11.3294 106.965 11.3398C106.975 11.3919 106.98 11.4271 106.98 11.4453C106.98 11.4661 106.975 11.4922 106.965 11.5234C106.629 11.5078 106.323 11.5 106.047 11.5C105.794 11.5 105.5 11.5078 105.164 11.5234C105.154 11.4818 105.148 11.4505 105.148 11.4297C105.148 11.4115 105.154 11.3815 105.164 11.3398C105.229 11.3294 105.284 11.319 105.328 11.3086C105.372 11.2956 105.421 11.276 105.473 11.25C105.525 11.224 105.564 11.1875 105.59 11.1406C105.616 11.0911 105.629 11.0326 105.629 10.9648L105.637 9.10938C105.637 8.63802 105.496 8.40234 105.215 8.40234C105.074 8.40234 104.924 8.44531 104.766 8.53125C104.609 8.61719 104.413 8.7487 104.176 8.92578C104.176 9.6888 104.186 10.3685 104.207 10.9648C104.21 11.0326 104.228 11.0911 104.262 11.1406C104.296 11.1875 104.344 11.224 104.406 11.25C104.471 11.276 104.527 11.2956 104.574 11.3086C104.621 11.319 104.68 11.3294 104.75 11.3398C104.766 11.3711 104.773 11.4036 104.773 11.4375C104.773 11.4635 104.766 11.4922 104.75 11.5234C104.406 11.5078 104.086 11.5 103.789 11.5C103.471 11.5 103.141 11.5078 102.797 11.5234C102.786 11.4818 102.781 11.4531 102.781 11.4375C102.781 11.4245 102.786 11.3919 102.797 11.3398C102.883 11.3294 102.953 11.319 103.008 11.3086C103.062 11.2956 103.13 11.276 103.211 11.25C103.292 11.224 103.353 11.1875 103.395 11.1406C103.436 11.0911 103.458 11.0326 103.461 10.9648C103.471 10.707 103.477 10.3945 103.477 10.0273C103.477 9.90495 103.475 9.69661 103.473 9.40234C103.47 9.10807 103.469 8.85026 103.469 8.62891C103.32 8.53776 103.07 8.48438 102.719 8.46875C102.708 8.42708 102.703 8.39453 102.703 8.37109C102.703 8.35547 102.708 8.32682 102.719 8.28516C103.224 8.23307 103.664 8.1263 104.039 7.96484C104.104 7.99089 104.15 8.02474 104.176 8.06641V8.68359C104.298 8.57161 104.401 8.48177 104.484 8.41406C104.568 8.34375 104.669 8.26823 104.789 8.1875C104.911 8.10677 105.033 8.04688 105.152 8.00781C105.275 7.96875 105.4 7.94922 105.527 7.94922C105.783 7.94922 105.973 8.01042 106.098 8.13281C106.223 8.2526 106.301 8.44141 106.332 8.69922C106.465 8.57943 106.57 8.48698 106.648 8.42188C106.729 8.35677 106.833 8.28125 106.961 8.19531C107.089 8.10938 107.214 8.04688 107.336 8.00781C107.458 7.96875 107.583 7.94922 107.711 7.94922C108.005 7.94922 108.215 8.03255 108.34 8.19922C108.465 8.36589 108.53 8.6263 108.535 8.98047L108.574 10.9648C108.577 11.0326 108.596 11.0911 108.633 11.1406C108.672 11.1875 108.727 11.224 108.797 11.25C108.867 11.276 108.926 11.2956 108.973 11.3086C109.02 11.319 109.081 11.3294 109.156 11.3398C109.169 11.4049 109.176 11.4401 109.176 11.4453C109.176 11.4583 109.169 11.4844 109.156 11.5234C108.82 11.5078 108.512 11.5 108.23 11.5C107.98 11.5 107.688 11.5078 107.352 11.5234C107.339 11.4714 107.332 11.4401 107.332 11.4297C107.332 11.4219 107.339 11.3919 107.352 11.3398ZM112.734 9.42969H110.605C110.595 9.58594 110.59 9.72396 110.59 9.84375C110.598 10.2318 110.711 10.543 110.93 10.7773C111.148 11.0091 111.441 11.125 111.809 11.125C111.908 11.125 112 11.1146 112.086 11.0938C112.172 11.0703 112.242 11.0443 112.297 11.0156C112.354 10.987 112.413 10.9453 112.473 10.8906C112.533 10.8359 112.576 10.793 112.602 10.7617C112.63 10.7279 112.668 10.6784 112.715 10.6133C112.762 10.5456 112.793 10.5026 112.809 10.4844C112.871 10.4974 112.922 10.526 112.961 10.5703C112.831 10.9193 112.629 11.181 112.355 11.3555C112.082 11.5273 111.785 11.6133 111.465 11.6133C111.306 11.6133 111.151 11.5924 111 11.5508C110.852 11.5117 110.707 11.4466 110.566 11.3555C110.426 11.2643 110.303 11.1523 110.199 11.0195C110.095 10.8841 110.012 10.7161 109.949 10.5156C109.887 10.3125 109.855 10.0885 109.855 9.84375C109.855 9.29427 110.023 8.84115 110.359 8.48438C110.695 8.1276 111.108 7.94922 111.598 7.94922C111.814 7.94922 112.001 7.98047 112.16 8.04297C112.322 8.10286 112.447 8.1849 112.535 8.28906C112.626 8.39323 112.693 8.50781 112.734 8.63281C112.779 8.75521 112.801 8.88672 112.801 9.02734C112.801 9.15755 112.779 9.29167 112.734 9.42969ZM111.504 8.20312C111.324 8.20312 111.154 8.28255 110.992 8.44141C110.833 8.60026 110.719 8.84115 110.648 9.16406H112.055C112.081 9.0651 112.094 8.97917 112.094 8.90625C112.094 8.70312 112.047 8.53516 111.953 8.40234C111.859 8.26953 111.71 8.20312 111.504 8.20312ZM115.648 11.3398C115.664 11.3711 115.672 11.4036 115.672 11.4375C115.672 11.4635 115.664 11.4922 115.648 11.5234C115.305 11.5078 114.971 11.5 114.648 11.5C114.331 11.5 114 11.5078 113.656 11.5234C113.646 11.4818 113.641 11.4531 113.641 11.4375C113.641 11.4245 113.646 11.3919 113.656 11.3398C113.742 11.3294 113.812 11.319 113.867 11.3086C113.922 11.2956 113.99 11.276 114.07 11.25C114.151 11.224 114.212 11.1875 114.254 11.1406C114.296 11.0911 114.318 11.0326 114.32 10.9648C114.331 10.707 114.336 10.3945 114.336 10.0273C114.336 9.90495 114.335 9.69661 114.332 9.40234C114.329 9.10807 114.328 8.85026 114.328 8.62891C114.18 8.53776 113.93 8.48438 113.578 8.46875C113.568 8.42708 113.562 8.39453 113.562 8.37109C113.562 8.35547 113.568 8.32682 113.578 8.28516C114.083 8.23307 114.523 8.1263 114.898 7.96484C114.964 7.99089 115.009 8.02474 115.035 8.06641V8.68359C115.288 8.46224 115.53 8.28516 115.762 8.15234C115.993 8.01693 116.228 7.94922 116.465 7.94922C116.762 7.94922 116.971 8.03255 117.094 8.19922C117.219 8.36589 117.284 8.6263 117.289 8.98047L117.328 10.9648C117.331 11.0326 117.35 11.0911 117.387 11.1406C117.426 11.1875 117.48 11.224 117.551 11.25C117.624 11.276 117.684 11.2956 117.73 11.3086C117.777 11.319 117.839 11.3294 117.914 11.3398C117.924 11.3919 117.93 11.4271 117.93 11.4453C117.93 11.4661 117.924 11.4922 117.914 11.5234C117.578 11.5078 117.268 11.5 116.984 11.5C116.708 11.5 116.402 11.5078 116.066 11.5234C116.056 11.4818 116.051 11.4505 116.051 11.4297C116.051 11.4115 116.056 11.3815 116.066 11.3398C116.134 11.3294 116.19 11.319 116.234 11.3086C116.281 11.2956 116.333 11.276 116.391 11.25C116.451 11.224 116.495 11.1875 116.523 11.1406C116.555 11.0911 116.57 11.0326 116.57 10.9648L116.578 9.10938C116.578 8.63802 116.436 8.40234 116.152 8.40234C115.887 8.40234 115.514 8.57943 115.035 8.93359C115.035 9.69141 115.046 10.3685 115.066 10.9648C115.069 11.0326 115.089 11.0911 115.125 11.1406C115.164 11.1875 115.219 11.224 115.289 11.25C115.359 11.276 115.418 11.2956 115.465 11.3086C115.512 11.319 115.573 11.3294 115.648 11.3398ZM119.539 7.28516C119.565 7.27474 119.595 7.26953 119.629 7.26953C119.663 7.26953 119.698 7.27474 119.734 7.28516V8.14062H120.918C120.934 8.17969 120.941 8.22786 120.941 8.28516C120.941 8.33464 120.934 8.38021 120.918 8.42188H119.734V10.5078C119.734 10.9193 119.923 11.125 120.301 11.125C120.444 11.125 120.566 11.0977 120.668 11.043C120.772 10.9883 120.887 10.9062 121.012 10.7969C121.077 10.8047 121.12 10.8359 121.141 10.8906C121.026 11.0964 120.857 11.2682 120.633 11.4062C120.409 11.5443 120.163 11.6133 119.895 11.6133C119.264 11.6133 118.949 11.2318 118.949 10.4688V8.42188H118.469C118.458 8.375 118.453 8.34505 118.453 8.33203C118.453 8.32943 118.458 8.29948 118.469 8.24219C118.594 8.17969 118.689 8.12891 118.754 8.08984C118.822 8.04818 118.906 7.98958 119.008 7.91406C119.112 7.83854 119.206 7.75 119.289 7.64844C119.375 7.54427 119.458 7.42318 119.539 7.28516Z" fill="white"/>
</svg>
